<svg width="241" height="240" viewBox="0 0 241 240" fill="none" xmlns="http://www.w3.org/2000/svg">
<path d="M120.484 119.984L120.484 9.15527e-05C135.968 9.15527e-05 151.305 2.99709 165.65 8.82575L120.484 119.984Z" fill="#277C78"/>
<path d="M120.484 119.984L165.65 8.82574C227.042 33.7703 256.587 103.759 231.643 165.15C206.698 226.541 136.709 256.087 75.3181 231.143C48.4302 220.217 26.4136 199.917 13.3474 174.001L120.484 119.984Z" fill="#82C9D7"/>
<path d="M120.484 119.984L13.3474 174.001C-5.70309 136.217 -3.44214 91.1917 19.2976 55.5059L120.484 119.984Z" fill="#F2CDAC"/>
<path d="M120.484 119.984L19.2976 55.5059C41.3288 20.9321 79.4876 9.15527e-05 120.484 9.15527e-05V119.984Z" fill="#626070"/>
<circle cx="120.5" cy="120" r="81" fill="white"/>
<circle opacity="0.25" cx="120.25" cy="119.75" r="93.7501" fill="white"/>
<path d="M89.4995 119.32C86.7262 119.32 84.4755 118.765 82.7475 117.656C81.0195 116.536 80.0275 114.813 79.7715 112.488L84.6355 112.392C84.8915 113.448 85.4408 114.253 86.2835 114.808C87.1368 115.352 88.2035 115.624 89.4835 115.624C90.2515 115.624 90.9288 115.501 91.5155 115.256C92.1128 115 92.5822 114.659 92.9235 114.232C93.2648 113.795 93.4355 113.299 93.4355 112.744C93.4355 111.891 93.1635 111.256 92.6195 110.84C92.0755 110.413 91.2382 110.072 90.1075 109.816L86.3155 109C84.5555 108.648 83.1422 107.949 82.0755 106.904C81.0195 105.848 80.4808 104.435 80.4595 102.664C80.4488 101.213 80.8382 99.9601 81.6275 98.9041C82.4275 97.8374 83.5102 97.0161 84.8755 96.4401C86.2515 95.8641 87.7928 95.5761 89.4995 95.5761C91.2488 95.5761 92.7582 95.8907 94.0275 96.5201C95.3075 97.1387 96.2888 97.9761 96.9715 99.0321C97.6648 100.077 98.0008 101.235 97.9795 102.504L93.2595 102.584C93.1102 101.56 92.7688 100.755 92.2355 100.168C91.7022 99.5814 90.8168 99.2881 89.5795 99.2881C88.9395 99.2881 88.3688 99.3574 87.8675 99.4961C87.3662 99.6347 86.9342 99.8321 86.5715 100.088C86.2088 100.333 85.9315 100.627 85.7395 100.968C85.5582 101.309 85.4675 101.693 85.4675 102.12C85.4675 102.792 85.6915 103.325 86.1395 103.72C86.5982 104.104 87.4568 104.461 88.7155 104.792L92.4435 105.704C94.5448 106.205 96.0595 107.064 96.9875 108.28C97.9262 109.496 98.3955 110.973 98.3955 112.712C98.3955 114.045 98.0275 115.208 97.2915 116.2C96.5662 117.192 95.5368 117.96 94.2035 118.504C92.8702 119.048 91.3022 119.32 89.4995 119.32ZM87.4995 92.5521H91.5475V96.7121H87.4995V92.5521ZM87.4195 117.896H91.4515V122.056H87.4195V117.896ZM101.521 102.984C101.521 101.32 101.91 99.9387 102.689 98.8401C103.478 97.7414 104.539 96.9201 105.873 96.3761C107.206 95.8214 108.689 95.5441 110.321 95.5441C112.049 95.5441 113.585 95.7681 114.929 96.2161C116.283 96.6641 117.35 97.3467 118.129 98.2641C118.907 99.1814 119.297 100.344 119.297 101.752C119.297 102.893 118.966 103.901 118.305 104.776C117.643 105.64 116.566 106.328 115.073 106.84C115.926 107.075 116.715 107.432 117.441 107.912C118.166 108.392 118.747 109.005 119.185 109.752C119.622 110.499 119.841 111.395 119.841 112.44C119.841 113.571 119.59 114.568 119.089 115.432C118.587 116.296 117.894 117.021 117.009 117.608C116.123 118.195 115.099 118.632 113.937 118.92C112.774 119.208 111.531 119.352 110.209 119.352C108.353 119.341 106.769 119.037 105.457 118.44C104.155 117.832 103.153 116.968 102.449 115.848C101.755 114.728 101.398 113.395 101.377 111.848H105.873C106.097 113.16 106.609 114.109 107.409 114.696C108.209 115.283 109.158 115.576 110.257 115.576C111.217 115.576 112.038 115.437 112.721 115.16C113.414 114.883 113.942 114.499 114.305 114.008C114.678 113.507 114.865 112.936 114.865 112.296C114.865 111.635 114.673 111.064 114.289 110.584C113.915 110.104 113.393 109.731 112.721 109.464C112.049 109.187 111.281 109.037 110.417 109.016L108.209 108.936V105.224L110.193 105.112C111.025 105.08 111.75 104.925 112.369 104.648C112.987 104.371 113.467 104.003 113.809 103.544C114.161 103.075 114.337 102.547 114.337 101.96C114.337 101.395 114.161 100.904 113.809 100.488C113.457 100.072 112.971 99.7467 112.353 99.5121C111.734 99.2774 111.025 99.1601 110.225 99.1601C109.489 99.1601 108.811 99.2827 108.193 99.5281C107.574 99.7734 107.067 100.179 106.673 100.744C106.278 101.299 106.049 102.045 105.985 102.984H101.521ZM122.708 102.984C122.708 101.32 123.098 99.9387 123.876 98.8401C124.666 97.7414 125.727 96.9201 127.06 96.3761C128.394 95.8214 129.876 95.5441 131.508 95.5441C133.236 95.5441 134.772 95.7681 136.116 96.2161C137.471 96.6641 138.538 97.3467 139.316 98.2641C140.095 99.1814 140.484 100.344 140.484 101.752C140.484 102.893 140.154 103.901 139.492 104.776C138.831 105.64 137.754 106.328 136.26 106.84C137.114 107.075 137.903 107.432 138.628 107.912C139.354 108.392 139.935 109.005 140.372 109.752C140.81 110.499 141.028 111.395 141.028 112.44C141.028 113.571 140.778 114.568 140.276 115.432C139.775 116.296 139.082 117.021 138.196 117.608C137.311 118.195 136.287 118.632 135.124 118.92C133.962 119.208 132.719 119.352 131.396 119.352C129.54 119.341 127.956 119.037 126.644 118.44C125.343 117.832 124.34 116.968 123.636 115.848C122.943 114.728 122.586 113.395 122.564 111.848H127.06C127.284 113.16 127.796 114.109 128.596 114.696C129.396 115.283 130.346 115.576 131.444 115.576C132.404 115.576 133.226 115.437 133.908 115.16C134.602 114.883 135.13 114.499 135.492 114.008C135.866 113.507 136.052 112.936 136.052 112.296C136.052 111.635 135.86 111.064 135.476 110.584C135.103 110.104 134.58 109.731 133.908 109.464C133.236 109.187 132.468 109.037 131.604 109.016L129.396 108.936V105.224L131.38 105.112C132.212 105.08 132.938 104.925 133.556 104.648C134.175 104.371 134.655 104.003 134.996 103.544C135.348 103.075 135.524 102.547 135.524 101.96C135.524 101.395 135.348 100.904 134.996 100.488C134.644 100.072 134.159 99.7467 133.54 99.5121C132.922 99.2774 132.212 99.1601 131.412 99.1601C130.676 99.1601 129.999 99.2827 129.38 99.5281C128.762 99.7734 128.255 100.179 127.86 100.744C127.466 101.299 127.236 102.045 127.172 102.984H122.708ZM153.064 95.5441C154.653 95.5441 156.072 95.7947 157.32 96.2961C158.578 96.7974 159.57 97.5334 160.296 98.5041C161.021 99.4641 161.384 100.648 161.384 102.056C161.384 103.24 161.058 104.248 160.408 105.08C159.757 105.912 158.957 106.552 158.008 107C158.712 107.149 159.4 107.501 160.072 108.056C160.754 108.6 161.314 109.272 161.752 110.072C162.189 110.861 162.408 111.699 162.408 112.584C162.408 113.96 162.018 115.155 161.24 116.168C160.472 117.181 159.384 117.965 157.976 118.52C156.578 119.064 154.941 119.336 153.064 119.336C151.208 119.336 149.581 119.064 148.184 118.52C146.786 117.965 145.698 117.181 144.92 116.168C144.141 115.155 143.752 113.96 143.752 112.584C143.752 111.699 143.97 110.861 144.408 110.072C144.845 109.272 145.4 108.6 146.072 108.056C146.744 107.501 147.437 107.149 148.152 107C147.202 106.552 146.397 105.912 145.736 105.08C145.074 104.248 144.744 103.24 144.744 102.056C144.744 100.648 145.106 99.4641 145.832 98.5041C146.568 97.5334 147.565 96.7974 148.824 96.2961C150.082 95.7947 151.496 95.5441 153.064 95.5441ZM153.064 105.192C154.13 105.192 155.005 104.909 155.688 104.344C156.381 103.768 156.728 102.973 156.728 101.96C156.728 100.957 156.381 100.163 155.688 99.5761C154.994 98.9894 154.12 98.6961 153.064 98.6961C152.018 98.6961 151.149 98.9894 150.456 99.5761C149.762 100.163 149.416 100.957 149.416 101.96C149.416 102.973 149.762 103.768 150.456 104.344C151.149 104.909 152.018 105.192 153.064 105.192ZM153.064 115.816C154.429 115.816 155.496 115.512 156.264 114.904C157.042 114.285 157.432 113.469 157.432 112.456C157.432 111.773 157.256 111.176 156.904 110.664C156.552 110.141 156.05 109.731 155.4 109.432C154.749 109.133 153.97 108.984 153.064 108.984C152.178 108.984 151.41 109.133 150.76 109.432C150.109 109.731 149.608 110.141 149.256 110.664C148.904 111.176 148.728 111.773 148.728 112.456C148.728 113.469 149.117 114.285 149.896 114.904C150.674 115.512 151.73 115.816 153.064 115.816Z" fill="#201F24"/>
<path d="M87.884 147.12C87.312 147.12 86.812 146.998 86.384 146.754C85.956 146.506 85.624 146.144 85.388 145.668C85.152 145.192 85.034 144.61 85.034 143.922C85.034 143.274 85.144 142.706 85.364 142.218C85.584 141.73 85.906 141.352 86.33 141.084C86.758 140.812 87.276 140.676 87.884 140.676C88.456 140.676 88.952 140.802 89.372 141.054C89.796 141.302 90.124 141.668 90.356 142.152C90.588 142.636 90.704 143.226 90.704 143.922C90.704 144.554 90.596 145.11 90.38 145.59C90.168 146.07 89.852 146.446 89.432 146.718C89.016 146.986 88.5 147.12 87.884 147.12ZM87.884 146.244C88.256 146.244 88.57 146.15 88.826 145.962C89.082 145.774 89.276 145.504 89.408 145.152C89.54 144.8 89.606 144.382 89.606 143.898C89.606 143.454 89.548 143.056 89.432 142.704C89.316 142.348 89.13 142.066 88.874 141.858C88.622 141.65 88.292 141.546 87.884 141.546C87.508 141.546 87.19 141.64 86.93 141.828C86.67 142.012 86.472 142.28 86.336 142.632C86.204 142.984 86.138 143.406 86.138 143.898C86.138 144.334 86.198 144.73 86.318 145.086C86.438 145.442 86.626 145.724 86.882 145.932C87.138 146.14 87.472 146.244 87.884 146.244ZM95.4142 140.796V141.606H93.9082V147H92.7922V141.606H91.4842V140.796H92.7922V139.836C92.7922 139.344 92.9182 138.97 93.1702 138.714C93.4222 138.454 93.7982 138.324 94.2982 138.324H95.4682L95.4742 139.11H94.5442C94.2922 139.11 94.1202 139.178 94.0282 139.314C93.9362 139.45 93.8902 139.656 93.8902 139.932V140.796H95.4142ZM102.701 147.12C101.785 147.12 101.025 146.924 100.421 146.532C99.8208 146.136 99.4628 145.552 99.3468 144.78L100.511 144.708C100.639 145.196 100.895 145.562 101.279 145.806C101.663 146.05 102.135 146.172 102.695 146.172C103.031 146.172 103.345 146.114 103.637 145.998C103.933 145.882 104.171 145.72 104.351 145.512C104.535 145.304 104.627 145.058 104.627 144.774C104.627 144.394 104.513 144.09 104.285 143.862C104.061 143.634 103.703 143.454 103.211 143.322L101.717 142.932C101.073 142.768 100.563 142.51 100.187 142.158C99.8108 141.806 99.6208 141.334 99.6168 140.742C99.6128 140.242 99.7428 139.802 100.007 139.422C100.275 139.042 100.643 138.746 101.111 138.534C101.583 138.322 102.127 138.216 102.743 138.216C103.335 138.216 103.845 138.33 104.273 138.558C104.705 138.782 105.039 139.08 105.275 139.452C105.515 139.824 105.643 140.23 105.659 140.67L104.531 140.73C104.443 140.214 104.253 139.824 103.961 139.56C103.673 139.292 103.267 139.158 102.743 139.158C102.495 139.158 102.255 139.19 102.023 139.254C101.795 139.314 101.589 139.406 101.405 139.53C101.225 139.654 101.081 139.808 100.973 139.992C100.865 140.176 100.811 140.39 100.811 140.634C100.811 140.946 100.921 141.194 101.141 141.378C101.361 141.558 101.757 141.736 102.329 141.912L103.769 142.32C104.505 142.524 105.029 142.842 105.341 143.274C105.657 143.702 105.815 144.198 105.815 144.762C105.815 145.222 105.685 145.63 105.425 145.986C105.165 146.338 104.799 146.616 104.327 146.82C103.859 147.02 103.317 147.12 102.701 147.12ZM102.233 137.028H103.259V138.576H102.233V137.028ZM102.161 146.706H103.187V148.254H102.161V146.706ZM110.017 147.132C109.537 147.132 109.089 147.042 108.673 146.862C108.261 146.678 107.915 146.418 107.635 146.082C107.359 145.746 107.189 145.344 107.125 144.876H108.205C108.305 145.272 108.513 145.594 108.829 145.842C109.145 146.086 109.529 146.208 109.981 146.208C110.493 146.208 110.931 146.074 111.295 145.806C111.663 145.538 111.937 145.124 112.117 144.564C112.297 144.004 112.365 143.286 112.321 142.41C112.221 142.714 112.063 142.982 111.847 143.214C111.631 143.442 111.371 143.622 111.067 143.754C110.763 143.886 110.427 143.952 110.059 143.952C109.487 143.952 108.983 143.84 108.547 143.616C108.111 143.392 107.771 143.072 107.527 142.656C107.287 142.24 107.167 141.742 107.167 141.162C107.167 140.582 107.287 140.07 107.527 139.626C107.767 139.182 108.111 138.834 108.559 138.582C109.007 138.33 109.539 138.204 110.155 138.204C110.827 138.204 111.409 138.378 111.901 138.726C112.393 139.07 112.773 139.566 113.041 140.214C113.309 140.858 113.443 141.632 113.443 142.536C113.443 143.508 113.309 144.336 113.041 145.02C112.777 145.704 112.389 146.228 111.877 146.592C111.369 146.952 110.749 147.132 110.017 147.132ZM110.179 143.01C110.499 143.01 110.803 142.936 111.091 142.788C111.379 142.64 111.613 142.444 111.793 142.2C111.977 141.952 112.069 141.682 112.069 141.39C112.073 140.942 111.997 140.548 111.841 140.208C111.685 139.864 111.463 139.596 111.175 139.404C110.887 139.208 110.551 139.11 110.167 139.11C109.815 139.11 109.503 139.194 109.231 139.362C108.963 139.53 108.751 139.764 108.595 140.064C108.443 140.364 108.367 140.712 108.367 141.108C108.367 141.688 108.521 142.15 108.829 142.494C109.137 142.838 109.587 143.01 110.179 143.01ZM114.367 138.324H120.457V139.284C120.149 139.704 119.843 140.182 119.539 140.718C119.239 141.25 118.953 141.808 118.681 142.392C118.409 142.972 118.165 143.546 117.949 144.114C117.733 144.678 117.553 145.21 117.409 145.71C117.269 146.206 117.179 146.636 117.139 147H115.933C115.997 146.604 116.111 146.114 116.275 145.53C116.443 144.946 116.663 144.308 116.935 143.616C117.207 142.92 117.535 142.202 117.919 141.462C118.303 140.722 118.743 139.996 119.239 139.284H114.367V138.324ZM122.42 138.324H127.598L127.568 139.284H123.368L123.146 142.086C123.434 141.818 123.748 141.628 124.088 141.516C124.432 141.4 124.804 141.342 125.204 141.342C125.728 141.342 126.21 141.45 126.65 141.666C127.094 141.878 127.45 142.194 127.718 142.614C127.986 143.03 128.12 143.546 128.12 144.162C128.12 144.762 127.99 145.284 127.73 145.728C127.47 146.172 127.104 146.518 126.632 146.766C126.16 147.01 125.606 147.132 124.97 147.132C124.434 147.132 123.938 147.038 123.482 146.85C123.026 146.662 122.634 146.4 122.306 146.064C121.982 145.728 121.744 145.342 121.592 144.906L122.552 144.504C122.696 144.832 122.876 145.124 123.092 145.38C123.312 145.636 123.572 145.836 123.872 145.98C124.172 146.124 124.512 146.196 124.892 146.196C125.508 146.196 126.002 146.018 126.374 145.662C126.75 145.302 126.938 144.814 126.938 144.198C126.938 143.814 126.85 143.48 126.674 143.196C126.498 142.908 126.26 142.684 125.96 142.524C125.664 142.364 125.336 142.284 124.976 142.284C124.74 142.284 124.52 142.306 124.316 142.35C124.112 142.39 123.91 142.47 123.71 142.59C123.51 142.71 123.3 142.892 123.08 143.136C123.056 143.148 123.038 143.154 123.026 143.154C123.014 143.15 122.994 143.142 122.966 143.13L122.03 142.836L122.42 138.324ZM133.953 147.078C133.617 147.078 133.345 147.032 133.137 146.94C132.933 146.848 132.775 146.724 132.663 146.568C132.555 146.412 132.481 146.234 132.441 146.034C132.405 145.83 132.387 145.62 132.387 145.404V138.084H133.479V145.296C133.479 145.608 133.539 145.842 133.659 145.998C133.783 146.154 133.955 146.24 134.175 146.256L134.511 146.262V146.982C134.419 147.01 134.323 147.032 134.223 147.048C134.123 147.068 134.033 147.078 133.953 147.078ZM137.138 140.796V147H136.064V140.796H137.138ZM137.162 138.33V139.482H136.028V138.33H137.162ZM139.16 147V140.796H140.228V141.696C140.4 141.424 140.636 141.186 140.936 140.982C141.236 140.778 141.626 140.676 142.106 140.676C142.33 140.676 142.558 140.714 142.79 140.79C143.026 140.866 143.242 140.98 143.438 141.132C143.634 141.284 143.786 141.47 143.894 141.69C144.086 141.386 144.346 141.142 144.674 140.958C145.002 140.77 145.372 140.676 145.784 140.676C146 140.676 146.226 140.71 146.462 140.778C146.698 140.842 146.916 140.958 147.116 141.126C147.32 141.29 147.486 141.52 147.614 141.816C147.742 142.108 147.806 142.484 147.806 142.944V147H146.69V143.052C146.69 142.676 146.63 142.386 146.51 142.182C146.39 141.974 146.232 141.828 146.036 141.744C145.844 141.66 145.638 141.618 145.418 141.618C145.226 141.618 145.022 141.656 144.806 141.732C144.59 141.808 144.406 141.936 144.254 142.116C144.102 142.296 144.026 142.542 144.026 142.854V147H142.922V142.728C142.922 142.484 142.856 142.28 142.724 142.116C142.596 141.952 142.434 141.828 142.238 141.744C142.046 141.66 141.854 141.618 141.662 141.618C141.45 141.618 141.236 141.66 141.02 141.744C140.808 141.828 140.628 141.962 140.48 142.146C140.336 142.326 140.264 142.562 140.264 142.854V147H139.16ZM150.743 140.796V147H149.669V140.796H150.743ZM150.767 138.33V139.482H149.633V138.33H150.767ZM155.929 141.606H154.531V145.464C154.531 145.684 154.553 145.846 154.597 145.95C154.645 146.05 154.723 146.114 154.831 146.142C154.943 146.17 155.095 146.184 155.287 146.184H155.965V146.928C155.889 146.956 155.773 146.98 155.617 147C155.465 147.02 155.275 147.03 155.047 147.03C154.619 147.03 154.287 146.972 154.051 146.856C153.815 146.74 153.649 146.568 153.553 146.34C153.461 146.112 153.415 145.832 153.415 145.5V141.606H152.407V140.796H153.445L153.715 138.99H154.531V140.79H155.929V141.606Z" fill="#696868"/>
</svg>
