<svg width="6" height="11" viewBox="0 0 6 11" fill="none" xmlns="http://www.w3.org/2000/svg">
<path d="M0.853506 0.146465L5.85351 5.14647C5.89999 5.1929 5.93687 5.24805 5.96204 5.30875C5.9872 5.36944 6.00015 5.43451 6.00015 5.50022C6.00015 5.56592 5.9872 5.63099 5.96204 5.69169C5.93687 5.75238 5.89999 5.80753 5.85351 5.85397L0.853506 10.854C0.783579 10.924 0.694452 10.9717 0.597409 10.991C0.500367 11.0103 0.399772 11.0004 0.308361 10.9625C0.216949 10.9247 0.138831 10.8605 0.0838958 10.7782C0.0289604 10.6959 -0.000321872 10.5992 -0.000244008 10.5002L-0.000244445 0.500216C-0.000322318 0.401267 0.02896 0.304521 0.0838954 0.222224C0.138831 0.139927 0.216949 0.0757809 0.30836 0.0379047C0.399772 2.85927e-05 0.500367 -0.00987437 0.597409 0.00945089C0.694451 0.0287761 0.783578 0.0764589 0.853506 0.146465Z" fill="#696868"/>
</svg>
