<svg width="6" height="11" viewBox="0 0 6 11" fill="none" xmlns="http://www.w3.org/2000/svg">
<path d="M5.14656 10.8535L0.146555 5.85353C0.100067 5.8071 0.0631874 5.75195 0.0380252 5.69125C0.0128629 5.63056 -8.74947e-05 5.56549 -8.74976e-05 5.49978C-8.75005e-05 5.43408 0.0128629 5.36901 0.0380251 5.30831C0.0631874 5.24762 0.100067 5.19247 0.146555 5.14603L5.14655 0.146033C5.21648 0.0760278 5.30561 0.028344 5.40265 0.00901881C5.49969 -0.0103064 5.60029 -0.000404087 5.6917 0.0374721C5.78311 0.0753484 5.86123 0.139495 5.91617 0.221792C5.9711 0.304089 6.00038 0.400836 6.00031 0.499783L6.00031 10.4998C6.00038 10.5987 5.9711 10.6955 5.91617 10.7778C5.86123 10.8601 5.78311 10.9242 5.6917 10.9621C5.60029 11 5.49969 11.0099 5.40265 10.9905C5.30561 10.9712 5.21648 10.9235 5.14656 10.8535Z" fill="#696868"/>
</svg>
